<svg id="svg" version="1.1" xmlns="http://www.w3.org/2000/svg" xmlns:xlink="http://www.w3.org/1999/xlink" width="40" height="401.99004975124376" viewBox="0, 0, 400,401.99004975124376"><g id="svgg"><path id="path0" d="M0.000 0.600 C 0.000 1.133,22.489 1.200,200.000 1.200 C 377.511 1.200,400.000 1.133,400.000 0.600 C 400.000 0.067,377.511 0.000,200.000 0.000 C 22.489 0.000,0.000 0.067,0.000 0.600 M213.922 76.820 C 213.549 77.038,211.389 77.460,209.122 77.759 C 206.559 78.097,204.471 78.609,203.600 79.113 C 202.830 79.558,201.615 80.044,200.900 80.193 C 200.185 80.342,199.600 80.611,199.600 80.792 C 199.600 80.973,199.015 81.500,198.300 81.963 C 195.562 83.737,194.382 84.762,193.015 86.554 C 192.237 87.573,191.600 88.554,191.600 88.734 C 191.600 88.913,191.150 89.483,190.600 90.000 C 189.946 90.614,189.600 91.373,189.600 92.192 C 189.600 92.888,189.171 94.026,188.636 94.751 C 187.992 95.623,187.578 96.880,187.389 98.529 C 187.233 99.888,186.785 101.632,186.393 102.404 C 185.731 103.710,185.671 106.190,185.529 138.004 C 185.395 168.120,185.302 172.343,184.749 173.400 C 184.403 174.060,183.910 175.911,183.654 177.512 C 183.398 179.114,182.831 181.091,182.394 181.906 C 181.957 182.721,181.600 183.554,181.600 183.757 C 181.600 183.960,180.480 185.202,179.111 186.516 C 176.646 188.884,175.248 189.600,173.089 189.600 C 172.474 189.600,171.531 189.889,170.993 190.242 C 170.281 190.708,168.364 190.981,163.971 191.240 C 160.647 191.437,157.764 191.699,157.564 191.822 C 156.901 192.232,157.106 211.824,157.779 212.383 C 158.490 212.973,161.327 213.444,168.507 214.165 C 172.079 214.523,174.358 214.943,174.993 215.359 C 175.531 215.711,176.229 216.000,176.542 216.000 C 178.813 216.000,184.000 223.448,184.000 226.710 C 184.000 227.435,184.315 228.509,184.700 229.096 C 185.350 230.087,185.414 232.734,185.600 265.782 C 185.782 298.159,185.861 301.491,186.467 302.400 C 186.834 302.950,187.260 304.618,187.414 306.106 C 187.578 307.688,187.983 309.184,188.389 309.706 C 188.771 310.198,189.299 311.261,189.562 312.068 C 189.826 312.875,190.290 313.743,190.595 313.996 C 190.899 314.248,191.266 314.989,191.409 315.641 C 191.552 316.293,192.104 317.112,192.635 317.460 C 193.166 317.807,193.600 318.269,193.600 318.486 C 193.600 318.945,195.794 321.061,196.864 321.634 C 197.269 321.851,197.600 322.270,197.600 322.567 C 197.600 322.870,198.377 323.301,199.381 323.553 C 200.360 323.800,201.315 324.276,201.502 324.610 C 201.704 324.972,202.871 325.385,204.375 325.627 C 205.767 325.851,207.468 326.342,208.153 326.717 C 209.271 327.330,211.093 327.400,225.800 327.400 L 242.200 327.400 242.200 308.933 C 242.200 298.776,242.105 290.372,241.990 290.256 C 241.787 290.053,238.552 289.420,234.765 288.841 C 233.755 288.686,232.426 288.164,231.811 287.680 C 231.196 287.196,230.386 286.800,230.012 286.800 C 228.863 286.800,226.400 283.712,226.398 282.267 C 226.396 281.570,226.158 280.545,225.867 279.989 C 225.577 279.433,225.190 278.533,225.008 277.989 C 224.825 277.445,224.568 263.384,224.438 246.742 C 224.217 218.697,224.149 216.427,223.501 215.711 C 223.116 215.286,222.652 214.135,222.468 213.152 C 222.202 211.728,221.633 210.845,219.667 208.804 C 218.310 207.396,217.200 206.113,217.200 205.953 C 217.200 205.793,216.576 205.456,215.813 205.204 C 212.759 204.196,211.625 201.557,213.800 200.519 C 214.570 200.152,215.200 199.709,215.200 199.534 C 215.200 199.359,215.875 198.851,216.700 198.405 C 217.525 197.958,218.650 197.052,219.200 196.392 C 219.750 195.731,220.677 194.665,221.260 194.022 C 221.875 193.345,222.440 192.128,222.604 191.127 C 222.760 190.177,223.182 189.066,223.544 188.658 C 224.137 187.989,224.220 184.861,224.403 156.258 C 224.586 127.565,224.668 124.506,225.273 123.600 C 225.640 123.050,226.071 121.880,226.231 121.000 C 226.657 118.644,229.310 115.412,231.200 114.946 C 231.750 114.811,232.481 114.349,232.824 113.921 C 233.345 113.270,234.167 113.097,237.824 112.871 L 242.200 112.600 242.311 96.000 C 242.447 75.660,242.899 77.751,238.304 77.467 C 236.267 77.342,233.700 77.061,232.600 76.843 C 229.974 76.324,214.805 76.305,213.922 76.820 " stroke="none" fill="#f2f2f2" fill-rule="evenodd"></path><path id="path1" d="M99.900 2.300 C 154.955 2.356,245.045 2.356,300.100 2.300 C 355.155 2.244,310.110 2.198,200.000 2.198 C 89.890 2.198,44.845 2.244,99.900 2.300 M208.800 75.491 C 208.250 75.591,207.510 75.932,207.155 76.249 C 206.800 76.566,205.586 76.934,204.457 77.068 C 203.241 77.212,201.884 77.696,201.125 78.255 C 200.421 78.775,199.637 79.200,199.384 79.200 C 199.131 79.200,198.598 79.560,198.200 80.000 C 197.802 80.440,197.273 80.800,197.024 80.800 C 196.556 80.800,194.394 82.468,193.253 83.710 C 192.894 84.100,192.220 84.820,191.756 85.310 C 191.291 85.799,190.771 86.650,190.600 87.200 C 190.429 87.750,189.864 88.596,189.344 89.081 C 188.797 89.591,188.400 90.421,188.400 91.055 C 188.400 91.656,188.057 92.520,187.638 92.974 C 187.219 93.428,186.690 94.430,186.463 95.200 C 186.235 95.970,185.774 97.349,185.439 98.264 C 185.103 99.179,184.646 102.059,184.423 104.664 C 184.199 107.269,183.846 110.390,183.638 111.600 C 183.429 112.810,183.239 124.780,183.216 138.200 C 183.167 166.606,182.782 177.315,181.769 178.434 C 181.402 178.839,180.943 180.022,180.749 181.062 C 180.372 183.082,179.738 183.924,176.632 186.535 L 174.663 188.189 168.735 188.643 C 165.449 188.895,162.552 189.308,162.237 189.569 C 161.924 189.829,160.391 190.178,158.830 190.345 C 154.761 190.779,155.000 190.015,155.000 202.606 C 155.000 216.147,154.214 214.859,162.701 215.220 C 167.127 215.407,169.380 215.671,170.212 216.097 C 170.865 216.432,172.351 216.835,173.514 216.993 C 176.596 217.410,180.800 220.855,180.800 222.963 C 180.800 223.395,181.131 224.120,181.536 224.574 C 182.972 226.185,183.199 231.203,183.228 262.045 C 183.244 278.190,183.416 292.750,183.611 294.400 C 184.741 303.954,185.127 306.318,185.704 307.212 C 186.054 307.755,186.466 308.920,186.620 309.800 C 186.773 310.680,187.213 311.760,187.597 312.200 C 187.981 312.640,188.414 313.501,188.558 314.113 C 188.703 314.726,189.177 315.531,189.611 315.902 C 190.045 316.274,190.400 316.802,190.400 317.075 C 190.400 317.561,191.533 318.902,194.118 321.477 C 196.768 324.116,197.094 324.400,197.464 324.400 C 197.673 324.400,198.430 324.832,199.146 325.360 C 199.861 325.888,201.111 326.443,201.923 326.594 C 202.735 326.744,203.690 327.127,204.044 327.445 C 204.398 327.762,206.173 328.192,207.988 328.399 C 209.803 328.606,211.532 328.977,211.830 329.225 C 212.628 329.887,230.667 330.197,234.000 329.606 C 235.430 329.352,237.896 329.022,239.480 328.872 C 243.734 328.470,243.384 330.242,243.511 308.420 C 243.641 285.980,244.228 288.232,238.143 287.824 C 234.618 287.588,233.736 287.401,233.314 286.799 C 233.031 286.394,232.250 285.943,231.580 285.796 C 227.253 284.845,226.849 281.594,226.786 247.200 C 226.761 234.110,226.595 222.500,226.416 221.400 C 225.407 215.207,224.991 213.818,223.049 210.152 C 221.922 208.024,218.917 204.773,217.707 204.371 C 216.456 203.956,214.304 201.600,215.176 201.600 C 215.413 201.600,216.172 201.060,216.863 200.400 C 217.554 199.740,218.328 199.200,218.584 199.200 C 219.230 199.200,221.054 197.187,221.376 196.120 C 221.521 195.637,221.992 195.130,222.420 194.994 C 222.849 194.857,223.200 194.512,223.200 194.227 C 223.200 193.941,223.546 193.268,223.968 192.731 C 224.391 192.194,224.947 190.594,225.204 189.177 C 225.460 187.760,225.879 186.347,226.135 186.039 C 226.474 185.629,226.670 177.097,226.857 154.439 C 227.122 122.518,227.212 120.568,228.465 119.677 C 228.869 119.390,229.200 118.901,229.200 118.591 C 229.200 118.282,229.605 117.812,230.100 117.549 C 230.595 117.285,231.180 116.849,231.400 116.579 C 231.620 116.310,232.790 115.866,234.000 115.592 C 235.210 115.319,236.452 114.894,236.760 114.648 C 237.068 114.401,238.504 114.110,239.950 114.000 C 243.796 113.708,243.587 114.837,243.594 94.300 C 243.600 77.329,243.576 76.776,242.800 76.000 C 242.033 75.233,212.634 74.793,208.800 75.491 M240.389 76.290 C 243.291 76.793,243.224 76.320,243.105 95.439 C 242.985 114.675,243.190 113.599,239.651 113.602 C 235.449 113.606,231.596 115.155,228.970 117.896 C 225.975 121.022,225.893 121.961,225.598 156.800 L 225.346 186.600 224.247 189.897 C 223.425 192.359,222.632 193.810,221.110 195.631 C 219.214 197.900,218.256 198.705,214.901 200.848 L 213.601 201.678 214.434 202.848 C 214.892 203.491,215.871 204.270,216.610 204.578 C 217.348 204.887,218.368 205.633,218.876 206.236 C 219.384 206.839,220.565 208.208,221.500 209.279 C 222.435 210.350,223.200 211.501,223.200 211.835 C 223.200 212.170,223.576 213.270,224.037 214.280 C 225.363 217.192,225.578 221.745,225.589 247.210 C 225.604 279.495,226.321 284.778,230.885 286.227 C 231.380 286.384,232.238 286.844,232.792 287.248 C 233.497 287.763,234.984 288.092,237.734 288.340 C 243.514 288.863,242.980 286.979,243.115 307.314 C 243.254 328.192,243.318 327.706,240.384 328.073 C 227.042 329.742,205.679 328.375,201.200 325.566 C 200.870 325.359,199.880 324.857,199.000 324.449 C 194.242 322.247,188.721 314.540,186.453 306.936 C 184.785 301.343,184.725 300.038,184.544 265.400 C 184.397 237.190,184.275 231.558,183.784 230.292 C 183.463 229.462,183.200 228.002,183.200 227.046 C 183.200 225.916,182.921 224.954,182.403 224.295 C 181.965 223.737,181.380 222.606,181.103 221.780 C 179.738 217.706,174.259 215.483,163.477 214.627 C 155.100 213.962,155.829 215.009,155.680 203.421 C 155.512 190.360,155.094 191.192,162.200 190.407 C 164.400 190.164,167.730 189.710,169.600 189.399 C 171.470 189.088,173.630 188.733,174.400 188.610 C 176.507 188.274,180.568 184.349,181.240 182.000 C 181.523 181.010,181.977 179.840,182.249 179.400 C 183.829 176.843,184.331 167.328,184.391 138.800 C 184.461 105.866,185.025 98.714,187.932 93.874 C 188.353 93.173,188.822 92.072,188.975 91.427 C 189.127 90.782,189.645 89.758,190.126 89.152 C 190.607 88.545,191.502 87.239,192.116 86.248 C 195.024 81.554,203.386 77.314,212.600 75.859 C 214.442 75.568,238.363 75.939,240.389 76.290 " stroke="none" fill="#6c6c6c" fill-rule="evenodd"></path><path id="path2" d="M99.900 1.900 C 154.955 1.956,245.045 1.956,300.100 1.900 C 355.155 1.844,310.110 1.798,200.000 1.798 C 89.890 1.798,44.845 1.844,99.900 1.900 M218.700 75.899 C 221.615 75.967,226.385 75.967,229.300 75.899 C 232.215 75.831,229.830 75.775,224.000 75.775 C 218.170 75.775,215.785 75.831,218.700 75.899 M209.264 76.473 C 208.309 76.687,207.605 76.938,207.699 77.032 C 207.792 77.126,209.024 76.950,210.435 76.641 C 211.846 76.333,212.550 76.082,212.000 76.083 C 211.450 76.084,210.219 76.260,209.264 76.473 M238.400 76.442 C 240.719 76.714,241.959 77.050,242.300 77.497 C 242.575 77.858,242.800 77.961,242.800 77.725 C 242.800 76.818,241.632 76.425,238.378 76.237 L 235.000 76.042 238.400 76.442 M242.983 94.600 C 242.983 103.620,243.035 107.367,243.099 102.927 C 243.164 98.487,243.164 91.107,243.100 86.527 C 243.035 81.947,242.983 85.580,242.983 94.600 M196.900 81.637 C 195.745 82.512,194.800 83.311,194.800 83.413 C 194.800 83.665,198.741 80.818,199.023 80.363 C 199.371 79.800,199.150 79.932,196.900 81.637 M192.399 85.700 C 191.810 86.504,191.713 86.784,192.145 86.433 C 192.801 85.900,193.793 84.400,193.489 84.400 C 193.413 84.400,192.922 84.985,192.399 85.700 M186.202 98.900 C 186.058 99.615,185.855 100.560,185.751 101.000 C 185.604 101.620,185.645 101.665,185.930 101.200 C 186.349 100.516,186.932 97.600,186.650 97.600 C 186.547 97.600,186.346 98.185,186.202 98.900 M184.928 106.800 C 184.928 108.230,185.001 108.815,185.089 108.100 C 185.178 107.385,185.178 106.215,185.089 105.500 C 185.001 104.785,184.928 105.370,184.928 106.800 M184.589 138.400 C 184.589 152.810,184.639 158.705,184.700 151.500 C 184.761 144.295,184.761 132.505,184.700 125.300 C 184.639 118.095,184.589 123.990,184.589 138.400 M242.180 112.777 C 241.971 112.984,240.810 113.221,239.600 113.303 L 237.400 113.452 239.651 113.526 C 241.235 113.578,242.049 113.422,242.400 113.000 C 242.947 112.341,242.785 112.177,242.180 112.777 M233.149 114.700 C 232.672 115.309,232.678 115.340,233.200 114.943 C 233.530 114.692,234.160 114.398,234.600 114.289 C 235.360 114.103,235.357 114.090,234.549 114.046 C 234.081 114.021,233.451 114.315,233.149 114.700 M229.800 116.635 L 228.600 117.666 229.900 116.806 C 230.615 116.333,231.200 115.868,231.200 115.773 C 231.200 115.473,231.031 115.578,229.800 116.635 M225.853 125.236 C 225.714 125.931,225.627 127.603,225.659 128.950 C 225.712 131.163,225.746 131.052,226.012 127.800 C 226.322 123.994,226.270 123.150,225.853 125.236 M225.389 157.600 C 225.389 172.010,225.439 177.905,225.500 170.700 C 225.561 163.495,225.561 151.705,225.500 144.500 C 225.439 137.295,225.389 143.190,225.389 157.600 M184.078 168.000 C 184.029 169.870,183.889 171.850,183.767 172.400 C 183.579 173.245,183.613 173.293,183.988 172.708 C 184.257 172.288,184.379 170.565,184.298 168.308 L 184.166 164.600 184.078 168.000 M182.085 179.613 C 181.818 180.040,181.601 180.617,181.602 180.895 C 181.604 181.173,181.877 180.878,182.210 180.240 C 182.903 178.911,182.811 178.450,182.085 179.613 M177.287 187.100 C 176.330 188.035,176.314 188.081,177.181 187.406 C 178.888 186.076,178.969 186.000,178.686 186.000 C 178.536 186.000,177.906 186.495,177.287 187.100 M224.083 189.087 C 223.850 189.699,223.450 190.880,223.195 191.710 C 222.940 192.541,222.266 193.801,221.697 194.510 L 220.662 195.800 221.764 194.759 C 222.713 193.861,225.034 188.500,224.642 188.109 C 224.568 188.035,224.317 188.475,224.083 189.087 M172.100 189.076 C 172.485 189.176,173.115 189.176,173.500 189.076 C 173.885 188.975,173.570 188.893,172.800 188.893 C 172.030 188.893,171.715 188.975,172.100 189.076 M169.529 189.405 C 169.416 189.517,167.991 189.764,166.362 189.953 C 163.846 190.245,163.701 190.298,165.400 190.310 C 167.382 190.323,172.169 189.339,170.567 189.248 C 170.108 189.221,169.641 189.292,169.529 189.405 M156.621 191.335 C 156.219 191.629,155.990 192.124,156.113 192.435 C 156.289 192.880,156.344 192.864,156.368 192.361 C 156.386 192.010,156.805 191.527,157.300 191.288 C 157.795 191.049,158.009 190.842,157.776 190.827 C 157.544 190.812,157.024 191.041,156.621 191.335 M155.773 202.600 C 155.773 207.880,155.830 209.985,155.899 207.277 C 155.968 204.569,155.968 200.249,155.899 197.677 C 155.829 195.105,155.772 197.320,155.773 202.600 M219.762 196.852 C 219.343 197.320,218.370 198.121,217.600 198.632 C 216.830 199.142,215.750 199.951,215.200 200.429 L 214.200 201.298 215.200 200.645 C 218.060 198.776,219.087 198.002,219.970 197.048 C 220.503 196.472,220.846 196.000,220.732 196.000 C 220.617 196.000,220.181 196.383,219.762 196.852 M213.412 201.581 C 213.283 201.790,213.738 202.555,214.424 203.281 L 215.672 204.600 214.638 203.165 C 214.069 202.375,213.723 201.610,213.869 201.465 C 214.014 201.319,214.024 201.200,213.890 201.200 C 213.757 201.200,213.541 201.371,213.412 201.581 M216.800 204.991 C 218.037 205.683,222.276 210.422,222.779 211.677 C 223.048 212.348,223.156 212.412,223.175 211.913 C 223.189 211.536,222.418 210.347,221.463 209.271 C 220.508 208.195,219.473 206.965,219.163 206.538 C 218.497 205.617,216.794 204.393,216.211 204.416 C 215.985 204.425,216.250 204.684,216.800 204.991 M156.000 212.689 C 156.000 213.414,157.083 214.034,158.664 214.212 C 160.182 214.384,160.185 214.382,158.884 214.040 C 158.160 213.850,157.215 213.375,156.784 212.985 C 156.353 212.595,156.000 212.462,156.000 212.689 M223.215 213.200 C 223.221 213.530,223.490 214.149,223.813 214.576 C 224.568 215.575,224.563 215.205,223.802 213.746 C 223.474 213.116,223.210 212.870,223.215 213.200 M164.100 214.687 C 164.705 214.778,165.695 214.778,166.300 214.687 C 166.905 214.595,166.410 214.520,165.200 214.520 C 163.990 214.520,163.495 214.595,164.100 214.687 M169.200 215.082 C 169.750 215.178,171.088 215.513,172.173 215.828 C 175.062 216.666,175.409 216.456,172.600 215.569 C 171.280 215.152,169.750 214.833,169.200 214.860 L 168.200 214.909 169.200 215.082 M175.992 216.846 C 176.537 217.064,177.266 217.458,177.611 217.721 C 177.957 217.984,177.815 217.795,177.297 217.300 C 176.779 216.805,176.050 216.411,175.678 216.425 C 175.227 216.442,175.332 216.583,175.992 216.846 M181.225 222.056 C 181.211 222.416,181.515 223.055,181.900 223.475 C 182.285 223.894,182.472 224.040,182.316 223.797 C 182.160 223.555,181.856 222.917,181.641 222.378 C 181.394 221.760,181.241 221.641,181.225 222.056 M225.388 247.000 C 225.388 260.860,225.439 266.472,225.500 259.471 C 225.561 252.470,225.561 241.130,225.500 234.271 C 225.438 227.412,225.388 233.140,225.388 247.000 M184.590 262.400 C 184.590 279.450,184.640 286.425,184.700 277.900 C 184.760 269.375,184.760 255.425,184.700 246.900 C 184.640 238.375,184.590 245.350,184.590 262.400 M225.647 274.033 C 225.673 275.005,225.837 276.340,226.011 277.000 C 226.202 277.728,226.241 277.098,226.109 275.400 C 225.861 272.221,225.576 271.376,225.647 274.033 M227.230 282.800 C 227.197 283.554,229.779 286.404,230.480 286.388 C 230.766 286.381,230.640 286.167,230.200 285.913 C 229.332 285.411,227.963 283.830,227.528 282.827 C 227.297 282.293,227.252 282.289,227.230 282.800 M232.400 287.400 C 233.214 288.000,234.244 288.382,234.978 288.354 C 236.136 288.310,236.122 288.293,234.701 288.017 C 233.877 287.857,232.873 287.428,232.470 287.063 C 232.067 286.698,231.581 286.400,231.391 286.400 C 231.200 286.400,231.655 286.850,232.400 287.400 M238.105 288.687 C 238.714 288.779,239.614 288.777,240.105 288.682 C 240.597 288.587,240.100 288.511,239.000 288.514 C 237.900 288.517,237.497 288.595,238.105 288.687 M242.984 308.400 C 242.984 317.970,243.036 321.885,243.100 317.100 C 243.163 312.315,243.163 304.485,243.100 299.700 C 243.036 294.915,242.984 298.830,242.984 308.400 M185.387 302.800 C 185.808 304.897,186.509 307.224,186.671 307.062 C 186.844 306.889,185.597 301.882,185.310 301.600 C 185.198 301.490,185.233 302.030,185.387 302.800 M187.603 310.490 C 187.601 310.650,187.959 311.370,188.399 312.090 C 188.838 312.811,189.196 313.220,189.196 313.000 C 189.195 312.780,188.837 312.060,188.400 311.400 C 187.963 310.740,187.604 310.331,187.603 310.490 M189.206 313.856 C 189.203 314.106,189.570 314.736,190.023 315.256 C 190.669 315.998,190.758 316.029,190.436 315.400 C 189.742 314.043,189.213 313.378,189.206 313.856 M195.000 321.454 C 195.220 321.648,196.029 322.345,196.799 323.003 L 198.197 324.200 197.199 323.063 C 196.649 322.438,195.840 321.741,195.400 321.514 C 194.960 321.288,194.780 321.261,195.000 321.454 M205.546 327.016 C 206.286 327.337,207.096 327.593,207.346 327.584 C 207.596 327.576,207.194 327.306,206.454 326.984 C 205.714 326.663,204.904 326.407,204.654 326.416 C 204.404 326.424,204.806 326.694,205.546 327.016 M236.705 328.283 C 237.202 328.379,237.922 328.375,238.305 328.275 C 238.687 328.175,238.280 328.096,237.400 328.101 C 236.520 328.105,236.207 328.187,236.705 328.283 M220.922 328.699 C 223.299 328.770,227.079 328.769,229.322 328.698 C 231.565 328.627,229.620 328.569,225.000 328.569 C 220.380 328.570,218.545 328.628,220.922 328.699 " stroke="none" fill="#848484" fill-rule="evenodd"></path><path id="path3" d="M99.900 1.500 C 154.955 1.556,245.045 1.556,300.100 1.500 C 355.155 1.444,310.110 1.398,200.000 1.398 C 89.890 1.398,44.845 1.444,99.900 1.500 M208.200 77.168 C 205.560 77.777,202.860 78.572,202.200 78.935 C 201.540 79.298,200.819 79.596,200.599 79.598 C 200.244 79.600,194.684 83.490,193.893 84.289 C 193.138 85.053,191.200 87.740,191.200 88.024 C 191.200 88.197,190.778 88.847,190.262 89.469 C 189.746 90.091,189.210 91.187,189.071 91.904 C 188.932 92.621,188.467 93.701,188.038 94.304 C 187.609 94.907,187.049 96.480,186.795 97.800 C 186.540 99.120,186.047 101.010,185.699 102.000 C 185.150 103.563,185.034 108.272,184.813 137.800 C 184.637 161.268,184.423 172.048,184.120 172.600 C 183.878 173.040,183.552 174.480,183.395 175.800 C 183.238 177.120,182.865 178.740,182.565 179.400 C 182.265 180.060,181.747 181.383,181.414 182.339 C 180.647 184.539,176.795 188.273,174.800 188.750 C 171.046 189.647,166.216 190.382,162.600 190.605 C 155.526 191.043,155.917 190.277,156.083 203.357 L 156.200 212.514 157.242 213.292 C 158.097 213.930,159.345 214.136,164.191 214.439 C 174.965 215.113,179.089 217.008,181.812 222.534 C 182.575 224.084,183.208 225.903,183.218 226.576 C 183.227 227.249,183.535 228.520,183.901 229.400 C 184.498 230.834,184.593 234.622,184.817 266.000 L 185.067 301.000 186.316 305.400 C 189.220 315.622,197.652 326.000,203.055 326.000 C 203.353 326.000,204.633 326.347,205.898 326.770 C 210.564 328.331,213.256 328.522,227.742 328.318 C 238.131 328.172,241.723 327.996,242.185 327.613 C 242.722 327.167,242.800 324.777,242.800 308.751 C 242.800 287.084,243.316 289.064,237.556 288.627 C 234.607 288.404,233.499 288.143,232.400 287.411 C 231.630 286.899,230.640 286.374,230.200 286.243 C 225.995 284.999,225.496 280.967,225.225 246.000 C 225.003 217.380,224.989 216.976,224.140 215.200 C 223.667 214.210,223.078 212.770,222.831 212.000 C 222.332 210.443,217.717 205.453,215.617 204.200 C 212.933 202.599,212.916 201.972,215.506 200.183 C 218.932 197.818,222.261 194.216,223.021 192.051 C 223.378 191.033,223.969 189.570,224.333 188.800 C 224.926 187.549,225.022 184.137,225.241 156.800 C 225.455 130.165,225.571 125.915,226.139 124.000 C 226.497 122.790,226.793 121.425,226.795 120.966 C 226.802 119.747,229.379 116.637,231.108 115.762 C 231.928 115.347,232.870 114.807,233.200 114.562 C 233.966 113.993,238.037 113.200,240.187 113.200 C 241.096 113.200,242.056 112.984,242.320 112.720 C 243.027 112.013,243.008 78.420,242.300 77.510 C 240.828 75.617,216.011 75.368,208.200 77.168 M232.600 76.843 C 233.700 77.061,236.267 77.342,238.304 77.467 C 242.899 77.751,242.447 75.660,242.311 96.000 L 242.200 112.600 237.824 112.871 C 234.167 113.097,233.345 113.270,232.824 113.921 C 232.481 114.349,231.750 114.811,231.200 114.946 C 229.310 115.412,226.657 118.644,226.231 121.000 C 226.071 121.880,225.640 123.050,225.273 123.600 C 224.668 124.506,224.586 127.565,224.403 156.258 C 224.220 184.861,224.137 187.989,223.544 188.658 C 223.182 189.066,222.760 190.177,222.604 191.127 C 222.440 192.128,221.875 193.345,221.260 194.022 C 220.677 194.665,219.750 195.731,219.200 196.392 C 218.650 197.052,217.525 197.958,216.700 198.405 C 215.875 198.851,215.200 199.359,215.200 199.534 C 215.200 199.709,214.570 200.152,213.800 200.519 C 211.625 201.557,212.759 204.196,215.813 205.204 C 216.576 205.456,217.200 205.793,217.200 205.953 C 217.200 206.113,218.310 207.396,219.667 208.804 C 221.633 210.845,222.202 211.728,222.468 213.152 C 222.652 214.135,223.116 215.286,223.501 215.711 C 224.149 216.427,224.217 218.697,224.438 246.742 C 224.568 263.384,224.825 277.445,225.008 277.989 C 225.190 278.533,225.577 279.433,225.867 279.989 C 226.158 280.545,226.396 281.570,226.398 282.267 C 226.400 283.712,228.863 286.800,230.012 286.800 C 230.386 286.800,231.196 287.196,231.811 287.680 C 232.426 288.164,233.755 288.686,234.765 288.841 C 238.552 289.420,241.787 290.053,241.990 290.256 C 242.105 290.372,242.200 298.776,242.200 308.933 L 242.200 327.400 225.800 327.400 C 211.093 327.400,209.271 327.330,208.153 326.717 C 207.468 326.342,205.767 325.851,204.375 325.627 C 202.871 325.385,201.704 324.972,201.502 324.610 C 201.315 324.276,200.360 323.800,199.381 323.553 C 198.377 323.301,197.600 322.870,197.600 322.567 C 197.600 322.270,197.269 321.851,196.864 321.634 C 195.794 321.061,193.600 318.945,193.600 318.486 C 193.600 318.269,193.166 317.807,192.635 317.460 C 192.104 317.112,191.552 316.293,191.409 315.641 C 191.266 314.989,190.899 314.248,190.595 313.996 C 190.290 313.743,189.826 312.875,189.562 312.068 C 189.299 311.261,188.771 310.198,188.389 309.706 C 187.983 309.184,187.578 307.688,187.414 306.106 C 187.260 304.618,186.834 302.950,186.467 302.400 C 185.861 301.491,185.782 298.159,185.600 265.782 C 185.414 232.734,185.350 230.087,184.700 229.096 C 184.315 228.509,184.000 227.435,184.000 226.710 C 184.000 223.448,178.813 216.000,176.542 216.000 C 176.229 216.000,175.531 215.711,174.993 215.359 C 174.358 214.943,172.079 214.523,168.507 214.165 C 161.327 213.444,158.490 212.973,157.779 212.383 C 157.106 211.824,156.901 192.232,157.564 191.822 C 157.764 191.699,160.647 191.437,163.971 191.240 C 168.364 190.981,170.281 190.708,170.993 190.242 C 171.531 189.889,172.474 189.600,173.089 189.600 C 175.248 189.600,176.646 188.884,179.111 186.516 C 180.480 185.202,181.600 183.960,181.600 183.757 C 181.600 183.554,181.957 182.721,182.394 181.906 C 182.831 181.091,183.398 179.114,183.654 177.512 C 183.910 175.911,184.403 174.060,184.749 173.400 C 185.302 172.343,185.395 168.120,185.529 138.004 C 185.671 106.190,185.731 103.710,186.393 102.404 C 186.785 101.632,187.233 99.888,187.389 98.529 C 187.578 96.880,187.992 95.623,188.636 94.751 C 189.171 94.026,189.600 92.888,189.600 92.192 C 189.600 91.373,189.946 90.614,190.600 90.000 C 191.150 89.483,191.600 88.913,191.600 88.734 C 191.600 88.554,192.237 87.573,193.015 86.554 C 194.382 84.762,195.562 83.737,198.300 81.963 C 199.015 81.500,199.600 80.973,199.600 80.792 C 199.600 80.611,200.185 80.342,200.900 80.193 C 201.615 80.044,202.830 79.558,203.600 79.113 C 204.471 78.609,206.559 78.097,209.122 77.759 C 211.389 77.460,213.549 77.038,213.922 76.820 C 214.805 76.305,229.974 76.324,232.600 76.843 " stroke="none" fill="#9c9c9c" fill-rule="evenodd"></path><path id="path4" d="M0.000 202.000 L 0.000 401.600 200.000 401.600 L 400.000 401.600 400.000 202.000 L 400.000 2.400 200.000 2.400 L 0.000 2.400 0.000 202.000 M242.800 76.000 C 243.576 76.776,243.600 77.329,243.594 94.300 C 243.587 114.837,243.796 113.708,239.950 114.000 C 238.504 114.110,237.068 114.401,236.760 114.648 C 236.452 114.894,235.210 115.319,234.000 115.592 C 232.790 115.866,231.620 116.310,231.400 116.579 C 231.180 116.849,230.595 117.285,230.100 117.549 C 229.605 117.812,229.200 118.282,229.200 118.591 C 229.200 118.901,228.869 119.390,228.465 119.677 C 227.212 120.568,227.122 122.518,226.857 154.439 C 226.670 177.097,226.474 185.629,226.135 186.039 C 225.879 186.347,225.460 187.760,225.204 189.177 C 224.947 190.594,224.391 192.194,223.968 192.731 C 223.546 193.268,223.200 193.941,223.200 194.227 C 223.200 194.512,222.849 194.857,222.420 194.994 C 221.992 195.130,221.521 195.637,221.376 196.120 C 221.054 197.187,219.230 199.200,218.584 199.200 C 218.328 199.200,217.554 199.740,216.863 200.400 C 216.172 201.060,215.413 201.600,215.176 201.600 C 214.304 201.600,216.456 203.956,217.707 204.371 C 218.917 204.773,221.922 208.024,223.049 210.152 C 224.991 213.818,225.407 215.207,226.416 221.400 C 226.595 222.500,226.761 234.110,226.786 247.200 C 226.849 281.594,227.253 284.845,231.580 285.796 C 232.250 285.943,233.031 286.394,233.314 286.799 C 233.736 287.401,234.618 287.588,238.143 287.824 C 244.228 288.232,243.641 285.980,243.511 308.420 C 243.384 330.242,243.734 328.470,239.480 328.872 C 237.896 329.022,235.430 329.352,234.000 329.606 C 230.667 330.197,212.628 329.887,211.830 329.225 C 211.532 328.977,209.803 328.606,207.988 328.399 C 206.173 328.192,204.398 327.762,204.044 327.445 C 203.690 327.127,202.735 326.744,201.923 326.594 C 201.111 326.443,199.861 325.888,199.146 325.360 C 198.430 324.832,197.673 324.400,197.464 324.400 C 197.094 324.400,196.768 324.116,194.118 321.477 C 191.533 318.902,190.400 317.561,190.400 317.075 C 190.400 316.802,190.045 316.274,189.611 315.902 C 189.177 315.531,188.703 314.726,188.558 314.113 C 188.414 313.501,187.981 312.640,187.597 312.200 C 187.213 311.760,186.773 310.680,186.620 309.800 C 186.466 308.920,186.054 307.755,185.704 307.212 C 185.127 306.318,184.741 303.954,183.611 294.400 C 183.416 292.750,183.244 278.190,183.228 262.045 C 183.199 231.203,182.972 226.185,181.536 224.574 C 181.131 224.120,180.800 223.395,180.800 222.963 C 180.800 220.855,176.596 217.410,173.514 216.993 C 172.351 216.835,170.865 216.432,170.212 216.097 C 169.380 215.671,167.127 215.407,162.701 215.220 C 154.214 214.859,155.000 216.147,155.000 202.606 C 155.000 190.015,154.761 190.779,158.830 190.345 C 160.391 190.178,161.924 189.829,162.237 189.569 C 162.552 189.308,165.449 188.895,168.735 188.643 L 174.663 188.189 176.632 186.535 C 179.738 183.924,180.372 183.082,180.749 181.062 C 180.943 180.022,181.402 178.839,181.769 178.434 C 182.782 177.315,183.167 166.606,183.216 138.200 C 183.239 124.780,183.429 112.810,183.638 111.600 C 183.846 110.390,184.199 107.269,184.423 104.664 C 184.646 102.059,185.103 99.179,185.439 98.264 C 185.774 97.349,186.235 95.970,186.463 95.200 C 186.690 94.430,187.219 93.428,187.638 92.974 C 188.057 92.520,188.400 91.656,188.400 91.055 C 188.400 90.421,188.797 89.591,189.344 89.081 C 189.864 88.596,190.429 87.750,190.600 87.200 C 190.771 86.650,191.291 85.799,191.756 85.310 C 192.220 84.820,192.894 84.100,193.253 83.710 C 194.394 82.468,196.556 80.800,197.024 80.800 C 197.273 80.800,197.802 80.440,198.200 80.000 C 198.598 79.560,199.131 79.200,199.384 79.200 C 199.637 79.200,200.421 78.775,201.125 78.255 C 201.884 77.696,203.241 77.212,204.457 77.068 C 205.586 76.934,206.800 76.566,207.155 76.249 C 208.681 74.887,241.458 74.658,242.800 76.000 " stroke="none" fill="#141414" fill-rule="evenodd"></path></g></svg>